<svg width="50" height="50" viewBox="0 0 50 50" fill="none" xmlns="http://www.w3.org/2000/svg">
<g opacity="0.3">
<path d="M25 50C38.8071 50 50 38.8071 50 25C50 11.1929 38.8071 0 25 0C11.1929 0 0 11.1929 0 25C0 38.8071 11.1929 50 25 50Z" fill="url(#paint0_linear)"/>
<path fill-rule="evenodd" clip-rule="evenodd" d="M11.3164 24.7359C18.6044 21.5606 23.4643 19.4673 25.8959 18.4559C32.8386 15.5682 34.2813 15.0665 35.2216 15.05C35.4284 15.0463 35.8908 15.0976 36.1903 15.3406C36.4433 15.5459 36.5128 15.8231 36.5461 16.0177C36.5794 16.2122 36.6209 16.6555 36.5879 17.0018C36.2117 20.9549 34.5838 30.548 33.7556 34.9755C33.4051 36.849 32.7151 37.4772 32.047 37.5386C30.5952 37.6722 29.4928 36.5792 28.0867 35.6574C25.8864 34.2151 24.6433 33.3172 22.5075 31.9098C20.0392 30.2832 21.6393 29.3892 23.046 27.9282C23.4141 27.5459 29.8108 21.7276 29.9346 21.1998C29.9501 21.1338 29.9644 20.8877 29.8183 20.7578C29.6721 20.6279 29.4563 20.6723 29.3006 20.7077C29.08 20.7577 25.5649 23.0811 18.7555 27.6776C17.7578 28.3627 16.854 28.6965 16.0443 28.679C15.1517 28.6598 13.4347 28.1743 12.1582 27.7594C10.5926 27.2505 9.34824 26.9814 9.45659 26.1171C9.51303 25.6669 10.133 25.2065 11.3164 24.7359Z" fill="white"/>
</g>
<defs>
<linearGradient id="paint0_linear" x1="25" y1="0" x2="25" y2="49.6292" gradientUnits="userSpaceOnUse">
<stop stop-color="#2AABEE"/>
<stop offset="1" stop-color="#229ED9"/>
</linearGradient>
</defs>
</svg>
