<svg width="50" height="50" viewBox="0 0 50 50" fill="none" xmlns="http://www.w3.org/2000/svg">
<path d="M15.724 45.3141C34.592 45.3141 44.912 29.6821 44.912 16.1261C44.912 15.6821 44.912 15.2401 44.882 14.8001C46.8897 13.3479 48.6227 11.5499 50 9.49012C48.1279 10.3201 46.1417 10.8642 44.108 11.1041C46.2496 9.82223 47.8524 7.80576 48.618 5.43012C46.6044 6.62514 44.4013 7.46726 42.104 7.92013C40.5573 6.27549 38.5117 5.18646 36.2837 4.82155C34.0558 4.45664 31.7696 4.8362 29.7791 5.90148C27.7886 6.96677 26.2046 8.6584 25.2724 10.7146C24.3401 12.7708 24.1115 15.0769 24.622 17.2761C20.5435 17.0715 16.5537 16.0116 12.9114 14.1651C9.26907 12.3187 6.05576 9.72692 3.48 6.55812C2.16818 8.81645 1.7664 11.4898 2.35646 14.034C2.94651 16.5782 4.48405 18.8018 6.656 20.2521C5.0234 20.2043 3.42635 19.7639 2 18.9681V19.0981C2.00065 21.4666 2.82052 23.7619 4.32056 25.5947C5.82061 27.4276 7.90846 28.6851 10.23 29.1541C8.71975 29.5661 7.13516 29.6263 5.598 29.3301C6.25378 31.3683 7.53006 33.1506 9.24841 34.4279C10.9668 35.7052 13.0413 36.4136 15.182 36.4541C13.0551 38.1259 10.6194 39.362 8.01432 40.0916C5.40924 40.8212 2.68586 41.03 0 40.7061C4.69132 43.7166 10.1498 45.3134 15.724 45.3061" fill="#1DA1F2"/>
</svg>
