<svg width="35" height="26" viewBox="0 0 35 26" fill="none" xmlns="http://www.w3.org/2000/svg">
<path d="M0 2C0 0.895431 0.89543 0 2 0H33C34.1046 0 35 0.895431 35 2C35 3.10457 34.1046 4 33 4H2C0.89543 4 0 3.10457 0 2Z" fill="black"/>
<path d="M0 24C0 22.8954 0.89543 22 2 22H33C34.1046 22 35 22.8954 35 24C35 25.1046 34.1046 26 33 26H2C0.89543 26 0 25.1046 0 24Z" fill="black"/>
<path d="M7 13C7 11.8954 7.89543 11 9 11H33C34.1046 11 35 11.8954 35 13C35 14.1046 34.1046 15 33 15H9C7.89543 15 7 14.1046 7 13Z" fill="black"/>
</svg>
